<svg xmlns="http://www.w3.org/2000/svg" viewBox="0 0 400 400">
  <defs>
    <linearGradient id="bg" x1="0" y1="0" x2="1" y2="1">
      <stop offset="0%" stop-color="#fce7f3"/>
      <stop offset="100%" stop-color="#fdf2f8"/>
    </linearGradient>
    <linearGradient id="vial" x1="0" y1="0" x2="0" y2="1">
      <stop offset="0%" stop-color="#c084fc"/>
      <stop offset="100%" stop-color="#a855f7"/>
    </linearGradient>
    <linearGradient id="liquid" x1="0" y1="0" x2="0" y2="1">
      <stop offset="0%" stop-color="#e9d5ff"/>
      <stop offset="100%" stop-color="#c084fc"/>
    </linearGradient>
    <linearGradient id="cap" x1="0" y1="0" x2="0" y2="1">
      <stop offset="0%" stop-color="#9333ea"/>
      <stop offset="100%" stop-color="#7e22ce"/>
    </linearGradient>
  </defs>
  <rect width="400" height="400" rx="40" fill="url(#bg)"/>
  <circle cx="75" cy="75" r="4" fill="#c084fc" opacity="0.6"/>
  <circle cx="325" cy="95" r="3" fill="#a855f7" opacity="0.5"/>
  <text x="65" y="120" font-size="16" opacity="0.4">&#x2728;</text>
  <text x="315" y="190" font-size="14" opacity="0.35">&#x2728;</text>
  <rect x="130" y="48" width="140" height="26" rx="13" fill="#a855f7" opacity="0.15"/>
  <text x="200" y="66" text-anchor="middle" font-family="sans-serif" font-size="9" font-weight="700" fill="#7e22ce">COMPLETE SET</text>
  <rect x="120" y="105" width="65" height="170" rx="10" fill="url(#vial)" opacity="0.15" stroke="#a855f7" stroke-width="2"/>
  <rect x="125" y="150" width="55" height="119" rx="8" fill="url(#liquid)" opacity="0.5"/>
  <rect x="128" y="95" width="49" height="18" rx="5" fill="url(#cap)"/>
  <rect x="131" y="90" width="42" height="8" rx="4" fill="#9333ea"/>
  <rect x="128" y="120" width="6" height="45" rx="3" fill="white" opacity="0.3"/>
  <rect x="130" y="172" width="45" height="32" rx="5" fill="white" opacity="0.8"/>
  <text x="152" y="187" text-anchor="middle" font-family="sans-serif" font-size="9" font-weight="700" fill="#7e22ce">TR20</text>
  <rect x="198" y="155" width="34" height="85" rx="7" fill="#e0f2fe" opacity="0.5" stroke="#7dd3fc" stroke-width="1.5"/>
  <rect x="202" y="185" width="26" height="50" rx="5" fill="#bae6fd" opacity="0.5"/>
  <rect x="203" y="149" width="24" height="10" rx="4" fill="#38bdf8"/>
  <text x="215" y="220" text-anchor="middle" font-family="sans-serif" font-size="6" fill="#0284c7">BA3</text>
  <g transform="translate(255, 110) rotate(15)">
    <rect x="0" y="0" width="14" height="150" rx="4" fill="white" opacity="0.7" stroke="#c084fc" stroke-width="1.5"/>
    <rect x="3" y="50" width="8" height="95" rx="2" fill="#e9d5ff" opacity="0.4"/>
    <rect x="-2" y="-8" width="18" height="10" rx="3" fill="#c084fc"/>
    <rect x="4" y="-30" width="6" height="28" rx="2" fill="#e5e7eb"/>
    <rect x="1" y="-35" width="12" height="8" rx="3" fill="#d1d5db"/>
    <line x1="7" y1="150" x2="7" y2="175" stroke="#d1d5db" stroke-width="1.5" stroke-linecap="round"/>
  </g>
  <rect x="260" y="270" width="40" height="30" rx="6" fill="white" opacity="0.8" stroke="#c084fc" stroke-width="1"/>
  <text x="280" y="290" text-anchor="middle" font-family="sans-serif" font-size="6" fill="#9333ea">SWAB</text>
  <text x="200" y="355" text-anchor="middle" font-size="22">&#x1F380;</text>
</svg>
