<svg xmlns="http://www.w3.org/2000/svg" viewBox="0 0 400 400">
  <defs>
    <linearGradient id="bg" x1="0" y1="0" x2="1" y2="1">
      <stop offset="0%" stop-color="#fce7f3"/>
      <stop offset="100%" stop-color="#fdf2f8"/>
    </linearGradient>
    <linearGradient id="vial" x1="0" y1="0" x2="0" y2="1">
      <stop offset="0%" stop-color="#fda4af"/>
      <stop offset="100%" stop-color="#f43f5e"/>
    </linearGradient>
    <linearGradient id="liquid" x1="0" y1="0" x2="0" y2="1">
      <stop offset="0%" stop-color="#ffe4e6"/>
      <stop offset="100%" stop-color="#fda4af"/>
    </linearGradient>
    <linearGradient id="cap" x1="0" y1="0" x2="0" y2="1">
      <stop offset="0%" stop-color="#e11d48"/>
      <stop offset="100%" stop-color="#be123c"/>
    </linearGradient>
  </defs>
  <rect width="400" height="400" rx="40" fill="url(#bg)"/>
  <circle cx="75" cy="75" r="4" fill="#fda4af" opacity="0.6"/>
  <circle cx="325" cy="95" r="3" fill="#fb7185" opacity="0.5"/>
  <text x="65" y="120" font-size="16" opacity="0.4">&#x2728;</text>
  <text x="315" y="190" font-size="14" opacity="0.35">&#x2728;</text>
  <rect x="130" y="48" width="140" height="26" rx="13" fill="#f43f5e" opacity="0.15"/>
  <text x="200" y="66" text-anchor="middle" font-family="sans-serif" font-size="9" font-weight="700" fill="#be123c">COMPLETE SET</text>
  <rect x="115" y="100" width="72" height="180" rx="11" fill="url(#vial)" opacity="0.15" stroke="#fb7185" stroke-width="2"/>
  <rect x="121" y="148" width="60" height="126" rx="8" fill="url(#liquid)" opacity="0.5"/>
  <rect x="124" y="90" width="53" height="18" rx="5" fill="url(#cap)"/>
  <rect x="128" y="85" width="45" height="8" rx="4" fill="#e11d48"/>
  <rect x="124" y="115" width="7" height="50" rx="3.5" fill="white" opacity="0.3"/>
  <rect x="126" y="172" width="49" height="34" rx="5" fill="white" opacity="0.8"/>
  <text x="150" y="188" text-anchor="middle" font-family="sans-serif" font-size="10" font-weight="700" fill="#be123c">TR30</text>
  <rect x="200" y="150" width="38" height="95" rx="7" fill="#e0f2fe" opacity="0.5" stroke="#7dd3fc" stroke-width="1.5"/>
  <rect x="205" y="185" width="28" height="55" rx="5" fill="#bae6fd" opacity="0.5"/>
  <rect x="206" y="143" width="26" height="12" rx="4" fill="#38bdf8"/>
  <text x="219" y="225" text-anchor="middle" font-family="sans-serif" font-size="6" fill="#0284c7">BA10</text>
  <g transform="translate(260, 105) rotate(15)">
    <rect x="0" y="0" width="14" height="150" rx="4" fill="white" opacity="0.7" stroke="#fda4af" stroke-width="1.5"/>
    <rect x="3" y="50" width="8" height="95" rx="2" fill="#ffe4e6" opacity="0.4"/>
    <rect x="-2" y="-8" width="18" height="10" rx="3" fill="#fda4af"/>
    <rect x="4" y="-30" width="6" height="28" rx="2" fill="#e5e7eb"/>
    <rect x="1" y="-35" width="12" height="8" rx="3" fill="#d1d5db"/>
    <line x1="7" y1="150" x2="7" y2="175" stroke="#d1d5db" stroke-width="1.5" stroke-linecap="round"/>
  </g>
  <rect x="265" y="268" width="40" height="30" rx="6" fill="white" opacity="0.8" stroke="#fda4af" stroke-width="1"/>
  <text x="285" y="288" text-anchor="middle" font-family="sans-serif" font-size="6" fill="#e11d48">SWAB</text>
  <text x="200" y="355" text-anchor="middle" font-size="22">&#x1F380;</text>
</svg>
